<svg xmlns="http://www.w3.org/2000/svg" viewBox="0 0 32 32" role="img" aria-label="A located point on a map graticule">
  <defs><clipPath id="c"><rect width="32" height="32" rx="7"/></clipPath></defs>
  <rect width="32" height="32" rx="7" fill="#1b2978"/>
  <g clip-path="url(#c)"><g fill="none" stroke="#75cdd6" stroke-width="1.55"><path d="M-2 10.5C6 7 26 7 34 10.5M-2 16C6 12.5 26 12.5 34 16M-2 21.5C6 18 26 18 34 21.5M-2 27C6 23.5 26 23.5 34 27M8.5-2C6 6 6 26 8.5 34M16-2C15 6 15 26 16 34M23.5-2C26 6 26 26 23.5 34"/></g><circle cx="15.6" cy="16" r="3.7" fill="#1b2978"/><circle cx="15.6" cy="16" r="2.5" fill="#ffffff"/></g>
</svg>
